<mxfile host="65bd71144e">
    <diagram id="qNxFQcWJALu9wYltb1kG" name="第1頁">
        <mxGraphModel dx="832" dy="563" grid="1" gridSize="10" guides="1" tooltips="1" connect="1" arrows="1" fold="1" page="1" pageScale="1" pageWidth="827" pageHeight="1169" math="0" shadow="0">
            <root>
                <mxCell id="0"/>
                <mxCell id="1" parent="0"/>
                <mxCell id="2" value="&lt;div style=&quot;color: rgb(204, 204, 204); background-color: rgb(31, 31, 31); font-family: Consolas, &amp;quot;Courier New&amp;quot;, monospace; font-weight: normal; font-size: 14px; line-height: 19px;&quot;&gt;點餐系統app&lt;/div&gt;" style="swimlane;whiteSpace=wrap;html=1;" parent="1" vertex="1">
                    <mxGeometry x="280" y="70" width="286" height="670" as="geometry"/>
                </mxCell>
                <mxCell id="3" value="" style="ellipse;whiteSpace=wrap;html=1;" parent="2" vertex="1">
                    <mxGeometry x="40" y="32" width="200" height="80" as="geometry"/>
                </mxCell>
                <mxCell id="4" value="&lt;div style=&quot;color: rgb(204, 204, 204); background-color: rgb(31, 31, 31); font-family: Consolas, &amp;quot;Courier New&amp;quot;, monospace; font-size: 15px; line-height: 19px;&quot;&gt;新用戶通過郵件或手機號碼註冊，並登錄系統&lt;/div&gt;" style="text;strokeColor=none;align=center;fillColor=none;html=1;verticalAlign=middle;whiteSpace=wrap;rounded=0;fontSize=15;" parent="2" vertex="1">
                    <mxGeometry x="55" y="57" width="170" height="30" as="geometry"/>
                </mxCell>
                <mxCell id="5" value="" style="ellipse;whiteSpace=wrap;html=1;" parent="2" vertex="1">
                    <mxGeometry x="40" y="120" width="200" height="80" as="geometry"/>
                </mxCell>
                <mxCell id="6" value="&lt;div style=&quot;color: rgb(204, 204, 204); background-color: rgb(31, 31, 31); font-family: Consolas, &amp;quot;Courier New&amp;quot;, monospace; font-size: 15px; line-height: 19px;&quot;&gt;用戶創建新的訂餐活動&lt;/div&gt;" style="text;strokeColor=none;align=center;fillColor=none;html=1;verticalAlign=middle;whiteSpace=wrap;rounded=0;fontSize=15;" parent="2" vertex="1">
                    <mxGeometry x="90" y="145" width="100" height="30" as="geometry"/>
                </mxCell>
                <mxCell id="7" value="" style="ellipse;whiteSpace=wrap;html=1;" parent="2" vertex="1">
                    <mxGeometry x="40" y="210" width="200" height="80" as="geometry"/>
                </mxCell>
                <mxCell id="8" value="" style="ellipse;whiteSpace=wrap;html=1;" parent="2" vertex="1">
                    <mxGeometry x="40" y="300" width="200" height="80" as="geometry"/>
                </mxCell>
                <mxCell id="9" value="" style="ellipse;whiteSpace=wrap;html=1;" parent="2" vertex="1">
                    <mxGeometry x="40" y="390" width="200" height="80" as="geometry"/>
                </mxCell>
                <mxCell id="10" value="" style="ellipse;whiteSpace=wrap;html=1;" parent="2" vertex="1">
                    <mxGeometry x="40" y="485" width="200" height="80" as="geometry"/>
                </mxCell>
                <mxCell id="11" value="" style="ellipse;whiteSpace=wrap;html=1;" parent="2" vertex="1">
                    <mxGeometry x="40" y="580" width="200" height="80" as="geometry"/>
                </mxCell>
                <mxCell id="12" value="&lt;div style=&quot;color: rgb(204, 204, 204); background-color: rgb(31, 31, 31); font-family: Consolas, &amp;quot;Courier New&amp;quot;, monospace; line-height: 19px;&quot;&gt;&lt;font style=&quot;font-size: 15px;&quot;&gt;用戶選擇餐點並提交訂單&lt;/font&gt;&lt;/div&gt;" style="text;strokeColor=none;align=center;fillColor=none;html=1;verticalAlign=middle;whiteSpace=wrap;rounded=0;" parent="2" vertex="1">
                    <mxGeometry x="90" y="235" width="100" height="30" as="geometry"/>
                </mxCell>
                <mxCell id="13" value="&lt;div style=&quot;color: rgb(204, 204, 204); background-color: rgb(31, 31, 31); font-family: Consolas, &amp;quot;Courier New&amp;quot;, monospace; line-height: 19px;&quot;&gt;&lt;font style=&quot;font-size: 15px;&quot;&gt;用戶查看訂單狀態和詳情&lt;/font&gt;&lt;/div&gt;" style="text;strokeColor=none;align=center;fillColor=none;html=1;verticalAlign=middle;whiteSpace=wrap;rounded=0;" parent="2" vertex="1">
                    <mxGeometry x="90" y="325" width="100" height="30" as="geometry"/>
                </mxCell>
                <mxCell id="14" value="&lt;div style=&quot;color: rgb(204, 204, 204); background-color: rgb(31, 31, 31); font-family: Consolas, &amp;quot;Courier New&amp;quot;, monospace; line-height: 19px;&quot;&gt;&lt;font style=&quot;font-size: 15px;&quot;&gt;訂餐負責人匯總並管理訂單&lt;/font&gt;&lt;/div&gt;" style="text;strokeColor=none;align=center;fillColor=none;html=1;verticalAlign=middle;whiteSpace=wrap;rounded=0;" parent="2" vertex="1">
                    <mxGeometry x="87.25" y="415" width="105.5" height="30" as="geometry"/>
                </mxCell>
                <mxCell id="15" value="&lt;div style=&quot;color: rgb(204, 204, 204); background-color: rgb(31, 31, 31); font-family: Consolas, &amp;quot;Courier New&amp;quot;, monospace; line-height: 19px;&quot;&gt;&lt;font style=&quot;font-size: 15px;&quot;&gt;系統自動發送通知給用戶&lt;/font&gt;&lt;/div&gt;" style="text;strokeColor=none;align=center;fillColor=none;html=1;verticalAlign=middle;whiteSpace=wrap;rounded=0;fontSize=16;" parent="2" vertex="1">
                    <mxGeometry x="86.5" y="510" width="107" height="30" as="geometry"/>
                </mxCell>
                <mxCell id="16" value="&lt;div style=&quot;color: rgb(204, 204, 204); background-color: rgb(31, 31, 31); font-family: Consolas, &amp;quot;Courier New&amp;quot;, monospace; line-height: 19px;&quot;&gt;&lt;font style=&quot;font-size: 15px;&quot;&gt;系統開發團隊&lt;/font&gt;&lt;/div&gt;" style="text;strokeColor=none;align=center;fillColor=none;html=1;verticalAlign=middle;whiteSpace=wrap;rounded=0;fontSize=16;" parent="2" vertex="1">
                    <mxGeometry x="87.75" y="605" width="105" height="30" as="geometry"/>
                </mxCell>
                <mxCell id="19" value="&lt;div style=&quot;color: rgb(204, 204, 204); background-color: rgb(31, 31, 31); font-family: Consolas, &amp;quot;Courier New&amp;quot;, monospace; line-height: 19px;&quot;&gt;&lt;font style=&quot;font-size: 18px;&quot;&gt;學生&lt;/font&gt;&lt;/div&gt;" style="shape=umlActor;verticalLabelPosition=bottom;verticalAlign=top;html=1;outlineConnect=0;fontSize=15;" parent="1" vertex="1">
                    <mxGeometry x="50" y="70" width="100" height="160" as="geometry"/>
                </mxCell>
                <mxCell id="20" value="&lt;div style=&quot;color: rgb(204, 204, 204); background-color: rgb(31, 31, 31); font-family: Consolas, &amp;quot;Courier New&amp;quot;, monospace; line-height: 19px;&quot;&gt;&lt;div style=&quot;line-height: 19px;&quot;&gt;&lt;font style=&quot;font-size: 15px;&quot;&gt;訂餐負責人（組織者）&lt;/font&gt;&lt;/div&gt;&lt;/div&gt;" style="shape=umlActor;verticalLabelPosition=bottom;verticalAlign=top;html=1;outlineConnect=0;fontSize=15;" parent="1" vertex="1">
                    <mxGeometry x="50" y="320" width="100" height="160" as="geometry"/>
                </mxCell>
                <mxCell id="21" value="&lt;div style=&quot;color: rgb(204, 204, 204); background-color: rgb(31, 31, 31); font-family: Consolas, &amp;quot;Courier New&amp;quot;, monospace; line-height: 19px;&quot;&gt;&lt;div style=&quot;line-height: 19px;&quot;&gt;&lt;div style=&quot;line-height: 19px; font-size: 18px;&quot;&gt;餐廳&lt;/div&gt;&lt;/div&gt;&lt;/div&gt;" style="shape=umlActor;verticalLabelPosition=bottom;verticalAlign=top;html=1;outlineConnect=0;fontSize=15;" parent="1" vertex="1">
                    <mxGeometry x="50" y="560" width="100" height="160" as="geometry"/>
                </mxCell>
                <mxCell id="22" value="&lt;div style=&quot;color: rgb(204, 204, 204); background-color: rgb(31, 31, 31); font-family: Consolas, &amp;quot;Courier New&amp;quot;, monospace; line-height: 19px;&quot;&gt;&lt;div style=&quot;line-height: 19px;&quot;&gt;&lt;div style=&quot;line-height: 19px; font-size: 18px;&quot;&gt;&lt;div style=&quot;line-height: 19px;&quot;&gt;開發團隊&lt;/div&gt;&lt;/div&gt;&lt;/div&gt;&lt;/div&gt;" style="shape=umlActor;verticalLabelPosition=bottom;verticalAlign=top;html=1;outlineConnect=0;fontSize=15;" parent="1" vertex="1">
                    <mxGeometry x="660" y="160" width="100" height="160" as="geometry"/>
                </mxCell>
                <mxCell id="23" value="&lt;div style=&quot;color: rgb(204, 204, 204); background-color: rgb(31, 31, 31); font-family: Consolas, &amp;quot;Courier New&amp;quot;, monospace; line-height: 19px;&quot;&gt;&lt;div style=&quot;line-height: 19px;&quot;&gt;&lt;div style=&quot;line-height: 19px; font-size: 18px;&quot;&gt;&lt;div style=&quot;line-height: 19px;&quot;&gt;學校管理者&lt;/div&gt;&lt;/div&gt;&lt;/div&gt;&lt;/div&gt;" style="shape=umlActor;verticalLabelPosition=bottom;verticalAlign=top;html=1;outlineConnect=0;fontSize=15;" parent="1" vertex="1">
                    <mxGeometry x="660" y="480" width="100" height="160" as="geometry"/>
                </mxCell>
                <mxCell id="26" value="" style="endArrow=none;html=1;fontSize=18;entryX=0;entryY=0.5;entryDx=0;entryDy=0;" parent="1" target="3" edge="1">
                    <mxGeometry width="50" height="50" relative="1" as="geometry">
                        <mxPoint x="150" y="160" as="sourcePoint"/>
                        <mxPoint x="480" y="390" as="targetPoint"/>
                    </mxGeometry>
                </mxCell>
                <mxCell id="27" value="" style="endArrow=none;html=1;fontSize=18;entryX=0;entryY=0.5;entryDx=0;entryDy=0;" parent="1" target="5" edge="1">
                    <mxGeometry width="50" height="50" relative="1" as="geometry">
                        <mxPoint x="160" y="400" as="sourcePoint"/>
                        <mxPoint x="480" y="390" as="targetPoint"/>
                    </mxGeometry>
                </mxCell>
                <mxCell id="28" value="" style="endArrow=none;html=1;fontSize=18;entryX=0;entryY=0.5;entryDx=0;entryDy=0;" parent="1" target="7" edge="1">
                    <mxGeometry width="50" height="50" relative="1" as="geometry">
                        <mxPoint x="150" y="180" as="sourcePoint"/>
                        <mxPoint x="480" y="390" as="targetPoint"/>
                    </mxGeometry>
                </mxCell>
                <mxCell id="30" value="" style="endArrow=none;html=1;fontSize=18;exitX=1;exitY=0.5;exitDx=0;exitDy=0;" parent="1" source="10" edge="1">
                    <mxGeometry width="50" height="50" relative="1" as="geometry">
                        <mxPoint x="430" y="440" as="sourcePoint"/>
                        <mxPoint x="650" y="250" as="targetPoint"/>
                    </mxGeometry>
                </mxCell>
                <mxCell id="31" value="" style="endArrow=none;html=1;fontSize=18;entryX=0;entryY=0.5;entryDx=0;entryDy=0;" parent="1" target="8" edge="1">
                    <mxGeometry width="50" height="50" relative="1" as="geometry">
                        <mxPoint x="170" y="670" as="sourcePoint"/>
                        <mxPoint x="480" y="390" as="targetPoint"/>
                    </mxGeometry>
                </mxCell>
                <mxCell id="32" value="" style="endArrow=none;html=1;fontSize=18;exitX=1;exitY=0.5;exitDx=0;exitDy=0;" parent="1" source="9" edge="1">
                    <mxGeometry width="50" height="50" relative="1" as="geometry">
                        <mxPoint x="430" y="440" as="sourcePoint"/>
                        <mxPoint x="650" y="580" as="targetPoint"/>
                    </mxGeometry>
                </mxCell>
                <mxCell id="33" value="" style="endArrow=none;html=1;fontSize=18;exitX=1;exitY=0.5;exitDx=0;exitDy=0;" parent="1" source="11" edge="1">
                    <mxGeometry width="50" height="50" relative="1" as="geometry">
                        <mxPoint x="430" y="440" as="sourcePoint"/>
                        <mxPoint x="650" y="280" as="targetPoint"/>
                    </mxGeometry>
                </mxCell>
                <mxCell id="36" value="" style="endArrow=none;html=1;fontSize=18;entryX=0.037;entryY=0.771;entryDx=0;entryDy=0;entryPerimeter=0;" parent="1" target="5" edge="1">
                    <mxGeometry width="50" height="50" relative="1" as="geometry">
                        <mxPoint x="160" y="650" as="sourcePoint"/>
                        <mxPoint x="480" y="390" as="targetPoint"/>
                    </mxGeometry>
                </mxCell>
            </root>
        </mxGraphModel>
    </diagram>
    <diagram id="hw3dPTYuNwL1bpZz55Yx" name="第2頁">
        <mxGraphModel dx="832" dy="563" grid="1" gridSize="10" guides="1" tooltips="1" connect="1" arrows="1" fold="1" page="1" pageScale="1" pageWidth="827" pageHeight="1169" math="0" shadow="0">
            <root>
                <mxCell id="0"/>
                <mxCell id="1" parent="0"/>
                <mxCell id="su2eq--4v8VFRO4t7ZzG-94" value="" style="group" parent="1" vertex="1" connectable="0">
                    <mxGeometry x="340" y="419" width="190" height="200" as="geometry"/>
                </mxCell>
                <mxCell id="su2eq--4v8VFRO4t7ZzG-67" value="&lt;div style=&quot;color: rgb(204, 204, 204); background-color: rgb(31, 31, 31); font-family: Consolas, &amp;quot;Courier New&amp;quot;, monospace; font-weight: normal; font-size: 14px; line-height: 19px;&quot;&gt;餐廳&lt;/div&gt;" style="swimlane;whiteSpace=wrap;html=1;startSize=23;" parent="su2eq--4v8VFRO4t7ZzG-94" vertex="1">
                    <mxGeometry width="190" height="200" as="geometry"/>
                </mxCell>
                <mxCell id="su2eq--4v8VFRO4t7ZzG-70" value="名稱" style="text;strokeColor=none;align=center;fillColor=none;html=1;verticalAlign=middle;whiteSpace=wrap;rounded=0;fontSize=15;" parent="su2eq--4v8VFRO4t7ZzG-67" vertex="1">
                    <mxGeometry x="41" y="30" width="60" height="30" as="geometry"/>
                </mxCell>
                <mxCell id="su2eq--4v8VFRO4t7ZzG-71" value="地址" style="text;strokeColor=none;align=center;fillColor=none;html=1;verticalAlign=middle;whiteSpace=wrap;rounded=0;fontSize=15;" parent="su2eq--4v8VFRO4t7ZzG-67" vertex="1">
                    <mxGeometry x="43" y="58" width="60" height="30" as="geometry"/>
                </mxCell>
                <mxCell id="su2eq--4v8VFRO4t7ZzG-72" value="聯繫方式" style="text;strokeColor=none;align=center;fillColor=none;html=1;verticalAlign=middle;whiteSpace=wrap;rounded=0;fontSize=15;" parent="su2eq--4v8VFRO4t7ZzG-67" vertex="1">
                    <mxGeometry x="52" y="86" width="70" height="30" as="geometry"/>
                </mxCell>
                <mxCell id="su2eq--4v8VFRO4t7ZzG-76" value="接收訂單信息()" style="text;strokeColor=none;align=center;fillColor=none;html=1;verticalAlign=middle;whiteSpace=wrap;rounded=0;fontSize=15;" parent="su2eq--4v8VFRO4t7ZzG-67" vertex="1">
                    <mxGeometry x="53.5" y="138" width="103" height="30" as="geometry"/>
                </mxCell>
                <mxCell id="su2eq--4v8VFRO4t7ZzG-77" value="提供菜單和餐點()" style="text;strokeColor=none;align=center;fillColor=none;html=1;verticalAlign=middle;whiteSpace=wrap;rounded=0;fontSize=15;" parent="su2eq--4v8VFRO4t7ZzG-67" vertex="1">
                    <mxGeometry x="49" y="167" width="126" height="30" as="geometry"/>
                </mxCell>
                <mxCell id="su2eq--4v8VFRO4t7ZzG-80" value="" style="endArrow=none;html=1;fontSize=18;" parent="su2eq--4v8VFRO4t7ZzG-94" edge="1">
                    <mxGeometry width="50" height="50" relative="1" as="geometry">
                        <mxPoint x="20" y="44" as="sourcePoint"/>
                        <mxPoint x="40" y="44" as="targetPoint"/>
                    </mxGeometry>
                </mxCell>
                <mxCell id="su2eq--4v8VFRO4t7ZzG-81" value="" style="endArrow=none;html=1;fontSize=18;" parent="su2eq--4v8VFRO4t7ZzG-94" edge="1">
                    <mxGeometry width="50" height="50" relative="1" as="geometry">
                        <mxPoint x="20" y="72" as="sourcePoint"/>
                        <mxPoint x="40" y="72" as="targetPoint"/>
                    </mxGeometry>
                </mxCell>
                <mxCell id="su2eq--4v8VFRO4t7ZzG-82" value="" style="endArrow=none;html=1;fontSize=18;" parent="su2eq--4v8VFRO4t7ZzG-94" edge="1">
                    <mxGeometry width="50" height="50" relative="1" as="geometry">
                        <mxPoint x="20" y="100" as="sourcePoint"/>
                        <mxPoint x="40" y="100" as="targetPoint"/>
                    </mxGeometry>
                </mxCell>
                <mxCell id="su2eq--4v8VFRO4t7ZzG-83" value="" style="endArrow=none;html=1;fontSize=15;" parent="su2eq--4v8VFRO4t7ZzG-94" edge="1">
                    <mxGeometry width="50" height="50" relative="1" as="geometry">
                        <mxPoint y="124" as="sourcePoint"/>
                        <mxPoint x="190" y="124" as="targetPoint"/>
                    </mxGeometry>
                </mxCell>
                <mxCell id="su2eq--4v8VFRO4t7ZzG-84" value="" style="group" parent="su2eq--4v8VFRO4t7ZzG-94" vertex="1" connectable="0">
                    <mxGeometry x="20" y="142" width="20" height="20" as="geometry"/>
                </mxCell>
                <mxCell id="su2eq--4v8VFRO4t7ZzG-85" value="" style="endArrow=none;html=1;fontSize=18;" parent="su2eq--4v8VFRO4t7ZzG-84" edge="1">
                    <mxGeometry width="50" height="50" relative="1" as="geometry">
                        <mxPoint y="9.565217391304348" as="sourcePoint"/>
                        <mxPoint x="20" y="9.565217391304348" as="targetPoint"/>
                    </mxGeometry>
                </mxCell>
                <mxCell id="su2eq--4v8VFRO4t7ZzG-86" value="" style="endArrow=none;html=1;fontSize=18;" parent="su2eq--4v8VFRO4t7ZzG-84" edge="1">
                    <mxGeometry width="50" height="50" relative="1" as="geometry">
                        <mxPoint x="10" as="sourcePoint"/>
                        <mxPoint x="10" y="20" as="targetPoint"/>
                    </mxGeometry>
                </mxCell>
                <mxCell id="su2eq--4v8VFRO4t7ZzG-87" value="" style="group" parent="su2eq--4v8VFRO4t7ZzG-94" vertex="1" connectable="0">
                    <mxGeometry x="20" y="170" width="20" height="20" as="geometry"/>
                </mxCell>
                <mxCell id="su2eq--4v8VFRO4t7ZzG-88" value="" style="endArrow=none;html=1;fontSize=18;" parent="su2eq--4v8VFRO4t7ZzG-87" edge="1">
                    <mxGeometry width="50" height="50" relative="1" as="geometry">
                        <mxPoint y="9.565217391304348" as="sourcePoint"/>
                        <mxPoint x="20" y="9.565217391304348" as="targetPoint"/>
                    </mxGeometry>
                </mxCell>
                <mxCell id="su2eq--4v8VFRO4t7ZzG-89" value="" style="endArrow=none;html=1;fontSize=18;" parent="su2eq--4v8VFRO4t7ZzG-87" edge="1">
                    <mxGeometry width="50" height="50" relative="1" as="geometry">
                        <mxPoint x="10" as="sourcePoint"/>
                        <mxPoint x="10" y="20" as="targetPoint"/>
                    </mxGeometry>
                </mxCell>
                <mxCell id="su2eq--4v8VFRO4t7ZzG-114" value="" style="group" parent="1" vertex="1" connectable="0">
                    <mxGeometry x="620" y="430" width="190" height="180" as="geometry"/>
                </mxCell>
                <mxCell id="su2eq--4v8VFRO4t7ZzG-96" value="&lt;div style=&quot;color: rgb(204, 204, 204); background-color: rgb(31, 31, 31); font-family: Consolas, &amp;quot;Courier New&amp;quot;, monospace; font-weight: normal; font-size: 14px; line-height: 19px;&quot;&gt;開發團隊&lt;/div&gt;" style="swimlane;whiteSpace=wrap;html=1;startSize=23;" parent="su2eq--4v8VFRO4t7ZzG-114" vertex="1">
                    <mxGeometry width="190" height="180" as="geometry"/>
                </mxCell>
                <mxCell id="su2eq--4v8VFRO4t7ZzG-99" value="名稱" style="text;strokeColor=none;align=center;fillColor=none;html=1;verticalAlign=middle;whiteSpace=wrap;rounded=0;fontSize=15;" parent="su2eq--4v8VFRO4t7ZzG-96" vertex="1">
                    <mxGeometry x="38" y="28" width="60" height="30" as="geometry"/>
                </mxCell>
                <mxCell id="su2eq--4v8VFRO4t7ZzG-101" value="聯繫方式" style="text;strokeColor=none;align=center;fillColor=none;html=1;verticalAlign=middle;whiteSpace=wrap;rounded=0;fontSize=15;" parent="su2eq--4v8VFRO4t7ZzG-96" vertex="1">
                    <mxGeometry x="49" y="59" width="70" height="30" as="geometry"/>
                </mxCell>
                <mxCell id="su2eq--4v8VFRO4t7ZzG-102" value="數據分析()" style="text;strokeColor=none;align=center;fillColor=none;html=1;verticalAlign=middle;whiteSpace=wrap;rounded=0;fontSize=15;" parent="su2eq--4v8VFRO4t7ZzG-96" vertex="1">
                    <mxGeometry x="45.75" y="106" width="86.5" height="30" as="geometry"/>
                </mxCell>
                <mxCell id="su2eq--4v8VFRO4t7ZzG-103" value="系統功能改進()" style="text;strokeColor=none;align=center;fillColor=none;html=1;verticalAlign=middle;whiteSpace=wrap;rounded=0;fontSize=15;" parent="su2eq--4v8VFRO4t7ZzG-96" vertex="1">
                    <mxGeometry x="48.75" y="141" width="111" height="30" as="geometry"/>
                </mxCell>
                <mxCell id="su2eq--4v8VFRO4t7ZzG-104" value="" style="endArrow=none;html=1;fontSize=18;" parent="su2eq--4v8VFRO4t7ZzG-114" edge="1">
                    <mxGeometry width="50" height="50" relative="1" as="geometry">
                        <mxPoint x="20" y="42" as="sourcePoint"/>
                        <mxPoint x="40" y="42" as="targetPoint"/>
                    </mxGeometry>
                </mxCell>
                <mxCell id="su2eq--4v8VFRO4t7ZzG-105" value="" style="endArrow=none;html=1;fontSize=18;" parent="su2eq--4v8VFRO4t7ZzG-114" edge="1">
                    <mxGeometry width="50" height="50" relative="1" as="geometry">
                        <mxPoint x="20" y="73" as="sourcePoint"/>
                        <mxPoint x="40" y="73" as="targetPoint"/>
                    </mxGeometry>
                </mxCell>
                <mxCell id="su2eq--4v8VFRO4t7ZzG-107" value="" style="endArrow=none;html=1;fontSize=15;" parent="su2eq--4v8VFRO4t7ZzG-114" edge="1">
                    <mxGeometry width="50" height="50" relative="1" as="geometry">
                        <mxPoint y="96" as="sourcePoint"/>
                        <mxPoint x="190" y="96" as="targetPoint"/>
                    </mxGeometry>
                </mxCell>
                <mxCell id="su2eq--4v8VFRO4t7ZzG-108" value="" style="group" parent="su2eq--4v8VFRO4t7ZzG-114" vertex="1" connectable="0">
                    <mxGeometry x="20" y="111" width="20" height="20" as="geometry"/>
                </mxCell>
                <mxCell id="su2eq--4v8VFRO4t7ZzG-109" value="" style="endArrow=none;html=1;fontSize=18;" parent="su2eq--4v8VFRO4t7ZzG-108" edge="1">
                    <mxGeometry width="50" height="50" relative="1" as="geometry">
                        <mxPoint y="9.565217391304348" as="sourcePoint"/>
                        <mxPoint x="20" y="9.565217391304348" as="targetPoint"/>
                    </mxGeometry>
                </mxCell>
                <mxCell id="su2eq--4v8VFRO4t7ZzG-110" value="" style="endArrow=none;html=1;fontSize=18;" parent="su2eq--4v8VFRO4t7ZzG-108" edge="1">
                    <mxGeometry width="50" height="50" relative="1" as="geometry">
                        <mxPoint x="10" as="sourcePoint"/>
                        <mxPoint x="10" y="20" as="targetPoint"/>
                    </mxGeometry>
                </mxCell>
                <mxCell id="su2eq--4v8VFRO4t7ZzG-111" value="" style="group" parent="su2eq--4v8VFRO4t7ZzG-114" vertex="1" connectable="0">
                    <mxGeometry x="20" y="146" width="20" height="20" as="geometry"/>
                </mxCell>
                <mxCell id="su2eq--4v8VFRO4t7ZzG-112" value="" style="endArrow=none;html=1;fontSize=18;" parent="su2eq--4v8VFRO4t7ZzG-111" edge="1">
                    <mxGeometry width="50" height="50" relative="1" as="geometry">
                        <mxPoint y="9.565217391304348" as="sourcePoint"/>
                        <mxPoint x="20" y="9.565217391304348" as="targetPoint"/>
                    </mxGeometry>
                </mxCell>
                <mxCell id="su2eq--4v8VFRO4t7ZzG-113" value="" style="endArrow=none;html=1;fontSize=18;" parent="su2eq--4v8VFRO4t7ZzG-111" edge="1">
                    <mxGeometry width="50" height="50" relative="1" as="geometry">
                        <mxPoint x="10" as="sourcePoint"/>
                        <mxPoint x="10" y="20" as="targetPoint"/>
                    </mxGeometry>
                </mxCell>
                <mxCell id="y-VTRFzA6LRBIdyBt608-22" value="" style="group" parent="1" vertex="1" connectable="0">
                    <mxGeometry x="620" y="95" width="190" height="206" as="geometry"/>
                </mxCell>
                <mxCell id="y-VTRFzA6LRBIdyBt608-2" value="&lt;div style=&quot;color: rgb(204, 204, 204); background-color: rgb(31, 31, 31); font-family: Consolas, &amp;quot;Courier New&amp;quot;, monospace; font-weight: normal; font-size: 14px; line-height: 19px;&quot;&gt;學校管理員&lt;/div&gt;" style="swimlane;whiteSpace=wrap;html=1;startSize=23;" parent="y-VTRFzA6LRBIdyBt608-22" vertex="1">
                    <mxGeometry width="190" height="206" as="geometry"/>
                </mxCell>
                <mxCell id="y-VTRFzA6LRBIdyBt608-5" value="姓名" style="text;strokeColor=none;align=center;fillColor=none;html=1;verticalAlign=middle;whiteSpace=wrap;rounded=0;fontSize=15;" parent="y-VTRFzA6LRBIdyBt608-2" vertex="1">
                    <mxGeometry x="38" y="31" width="60" height="30" as="geometry"/>
                </mxCell>
                <mxCell id="y-VTRFzA6LRBIdyBt608-6" value="聯繫方式" style="text;strokeColor=none;align=center;fillColor=none;html=1;verticalAlign=middle;whiteSpace=wrap;rounded=0;fontSize=15;" parent="y-VTRFzA6LRBIdyBt608-2" vertex="1">
                    <mxGeometry x="49" y="60" width="70" height="30" as="geometry"/>
                </mxCell>
                <mxCell id="y-VTRFzA6LRBIdyBt608-7" value="審核訂餐活動()" style="text;strokeColor=none;align=center;fillColor=none;html=1;verticalAlign=middle;whiteSpace=wrap;rounded=0;fontSize=15;" parent="y-VTRFzA6LRBIdyBt608-2" vertex="1">
                    <mxGeometry x="49.75" y="113" width="104.25" height="30" as="geometry"/>
                </mxCell>
                <mxCell id="y-VTRFzA6LRBIdyBt608-8" value="管理學生信息()" style="text;strokeColor=none;align=center;fillColor=none;html=1;verticalAlign=middle;whiteSpace=wrap;rounded=0;fontSize=15;" parent="y-VTRFzA6LRBIdyBt608-2" vertex="1">
                    <mxGeometry x="45.75" y="144" width="111" height="30" as="geometry"/>
                </mxCell>
                <mxCell id="y-VTRFzA6LRBIdyBt608-21" value="發送通知()" style="text;strokeColor=none;align=center;fillColor=none;html=1;verticalAlign=middle;whiteSpace=wrap;rounded=0;fontSize=15;" parent="y-VTRFzA6LRBIdyBt608-2" vertex="1">
                    <mxGeometry x="44.75" y="174" width="84.25" height="30" as="geometry"/>
                </mxCell>
                <mxCell id="y-VTRFzA6LRBIdyBt608-9" value="" style="endArrow=none;html=1;fontSize=18;" parent="y-VTRFzA6LRBIdyBt608-22" edge="1">
                    <mxGeometry width="50" height="50" relative="1" as="geometry">
                        <mxPoint x="20" y="45" as="sourcePoint"/>
                        <mxPoint x="40" y="45" as="targetPoint"/>
                    </mxGeometry>
                </mxCell>
                <mxCell id="y-VTRFzA6LRBIdyBt608-10" value="" style="endArrow=none;html=1;fontSize=18;" parent="y-VTRFzA6LRBIdyBt608-22" edge="1">
                    <mxGeometry width="50" height="50" relative="1" as="geometry">
                        <mxPoint x="20" y="74" as="sourcePoint"/>
                        <mxPoint x="40" y="74" as="targetPoint"/>
                    </mxGeometry>
                </mxCell>
                <mxCell id="y-VTRFzA6LRBIdyBt608-11" value="" style="endArrow=none;html=1;fontSize=15;" parent="y-VTRFzA6LRBIdyBt608-22" edge="1">
                    <mxGeometry width="50" height="50" relative="1" as="geometry">
                        <mxPoint y="99" as="sourcePoint"/>
                        <mxPoint x="190" y="99" as="targetPoint"/>
                    </mxGeometry>
                </mxCell>
                <mxCell id="y-VTRFzA6LRBIdyBt608-12" value="" style="group" parent="y-VTRFzA6LRBIdyBt608-22" vertex="1" connectable="0">
                    <mxGeometry x="20" y="116" width="20" height="20" as="geometry"/>
                </mxCell>
                <mxCell id="y-VTRFzA6LRBIdyBt608-13" value="" style="endArrow=none;html=1;fontSize=18;" parent="y-VTRFzA6LRBIdyBt608-12" edge="1">
                    <mxGeometry width="50" height="50" relative="1" as="geometry">
                        <mxPoint y="9.565217391304348" as="sourcePoint"/>
                        <mxPoint x="20" y="9.565217391304348" as="targetPoint"/>
                    </mxGeometry>
                </mxCell>
                <mxCell id="y-VTRFzA6LRBIdyBt608-14" value="" style="endArrow=none;html=1;fontSize=18;" parent="y-VTRFzA6LRBIdyBt608-12" edge="1">
                    <mxGeometry width="50" height="50" relative="1" as="geometry">
                        <mxPoint x="10" as="sourcePoint"/>
                        <mxPoint x="10" y="20" as="targetPoint"/>
                    </mxGeometry>
                </mxCell>
                <mxCell id="y-VTRFzA6LRBIdyBt608-15" value="" style="group" parent="y-VTRFzA6LRBIdyBt608-22" vertex="1" connectable="0">
                    <mxGeometry x="20" y="148" width="20" height="20" as="geometry"/>
                </mxCell>
                <mxCell id="y-VTRFzA6LRBIdyBt608-16" value="" style="endArrow=none;html=1;fontSize=18;" parent="y-VTRFzA6LRBIdyBt608-15" edge="1">
                    <mxGeometry width="50" height="50" relative="1" as="geometry">
                        <mxPoint y="9.565217391304348" as="sourcePoint"/>
                        <mxPoint x="20" y="9.565217391304348" as="targetPoint"/>
                    </mxGeometry>
                </mxCell>
                <mxCell id="y-VTRFzA6LRBIdyBt608-17" value="" style="endArrow=none;html=1;fontSize=18;" parent="y-VTRFzA6LRBIdyBt608-15" edge="1">
                    <mxGeometry width="50" height="50" relative="1" as="geometry">
                        <mxPoint x="10" as="sourcePoint"/>
                        <mxPoint x="10" y="20" as="targetPoint"/>
                    </mxGeometry>
                </mxCell>
                <mxCell id="y-VTRFzA6LRBIdyBt608-18" value="" style="group" parent="y-VTRFzA6LRBIdyBt608-22" vertex="1" connectable="0">
                    <mxGeometry x="20" y="177" width="20" height="20" as="geometry"/>
                </mxCell>
                <mxCell id="y-VTRFzA6LRBIdyBt608-19" value="" style="endArrow=none;html=1;fontSize=18;" parent="y-VTRFzA6LRBIdyBt608-18" edge="1">
                    <mxGeometry width="50" height="50" relative="1" as="geometry">
                        <mxPoint y="9.565217391304348" as="sourcePoint"/>
                        <mxPoint x="20" y="9.565217391304348" as="targetPoint"/>
                    </mxGeometry>
                </mxCell>
                <mxCell id="y-VTRFzA6LRBIdyBt608-20" value="" style="endArrow=none;html=1;fontSize=18;" parent="y-VTRFzA6LRBIdyBt608-18" edge="1">
                    <mxGeometry width="50" height="50" relative="1" as="geometry">
                        <mxPoint x="10" as="sourcePoint"/>
                        <mxPoint x="10" y="20" as="targetPoint"/>
                    </mxGeometry>
                </mxCell>
                <mxCell id="y-VTRFzA6LRBIdyBt608-26" value="" style="group" parent="1" vertex="1" connectable="0">
                    <mxGeometry x="30" y="40" width="210" height="290" as="geometry"/>
                </mxCell>
                <mxCell id="zpLQiTPNIE4cTpBWgNPp-1" value="&lt;div style=&quot;color: rgb(204, 204, 204); background-color: rgb(31, 31, 31); font-family: Consolas, &amp;quot;Courier New&amp;quot;, monospace; font-weight: normal; font-size: 14px; line-height: 19px;&quot;&gt;學生&lt;/div&gt;" style="swimlane;whiteSpace=wrap;html=1;startSize=23;" parent="y-VTRFzA6LRBIdyBt608-26" vertex="1">
                    <mxGeometry width="210" height="290" as="geometry"/>
                </mxCell>
                <mxCell id="su2eq--4v8VFRO4t7ZzG-3" value="" style="endArrow=none;html=1;fontSize=18;" parent="zpLQiTPNIE4cTpBWgNPp-1" edge="1">
                    <mxGeometry width="50" height="50" relative="1" as="geometry">
                        <mxPoint x="20" y="41" as="sourcePoint"/>
                        <mxPoint x="40" y="41" as="targetPoint"/>
                    </mxGeometry>
                </mxCell>
                <mxCell id="su2eq--4v8VFRO4t7ZzG-7" value="&lt;font style=&quot;font-size: 15px;&quot;&gt;學生&lt;/font&gt;" style="text;strokeColor=none;align=center;fillColor=none;html=1;verticalAlign=middle;whiteSpace=wrap;rounded=0;fontSize=18;" parent="zpLQiTPNIE4cTpBWgNPp-1" vertex="1">
                    <mxGeometry x="43" y="27" width="60" height="30" as="geometry"/>
                </mxCell>
                <mxCell id="su2eq--4v8VFRO4t7ZzG-8" value="姓名" style="text;strokeColor=none;align=center;fillColor=none;html=1;verticalAlign=middle;whiteSpace=wrap;rounded=0;fontSize=15;" parent="zpLQiTPNIE4cTpBWgNPp-1" vertex="1">
                    <mxGeometry x="43" y="50" width="60" height="30" as="geometry"/>
                </mxCell>
                <mxCell id="su2eq--4v8VFRO4t7ZzG-9" value="郵件" style="text;strokeColor=none;align=center;fillColor=none;html=1;verticalAlign=middle;whiteSpace=wrap;rounded=0;fontSize=15;" parent="zpLQiTPNIE4cTpBWgNPp-1" vertex="1">
                    <mxGeometry x="43" y="73" width="60" height="30" as="geometry"/>
                </mxCell>
                <mxCell id="su2eq--4v8VFRO4t7ZzG-10" value="手機號碼" style="text;strokeColor=none;align=center;fillColor=none;html=1;verticalAlign=middle;whiteSpace=wrap;rounded=0;fontSize=15;" parent="zpLQiTPNIE4cTpBWgNPp-1" vertex="1">
                    <mxGeometry x="52" y="98" width="70" height="30" as="geometry"/>
                </mxCell>
                <mxCell id="su2eq--4v8VFRO4t7ZzG-21" value="" style="group" parent="zpLQiTPNIE4cTpBWgNPp-1" vertex="1" connectable="0">
                    <mxGeometry x="20" y="203" width="20" height="20" as="geometry"/>
                </mxCell>
                <mxCell id="su2eq--4v8VFRO4t7ZzG-22" value="" style="endArrow=none;html=1;fontSize=18;" parent="su2eq--4v8VFRO4t7ZzG-21" edge="1">
                    <mxGeometry width="50" height="50" relative="1" as="geometry">
                        <mxPoint y="9.565217391304348" as="sourcePoint"/>
                        <mxPoint x="20" y="9.565217391304348" as="targetPoint"/>
                    </mxGeometry>
                </mxCell>
                <mxCell id="su2eq--4v8VFRO4t7ZzG-23" value="" style="endArrow=none;html=1;fontSize=18;" parent="su2eq--4v8VFRO4t7ZzG-21" edge="1">
                    <mxGeometry width="50" height="50" relative="1" as="geometry">
                        <mxPoint x="10" as="sourcePoint"/>
                        <mxPoint x="10" y="20" as="targetPoint"/>
                    </mxGeometry>
                </mxCell>
                <mxCell id="su2eq--4v8VFRO4t7ZzG-27" value="註冊()" style="text;strokeColor=none;align=center;fillColor=none;html=1;verticalAlign=middle;whiteSpace=wrap;rounded=0;fontSize=15;" parent="zpLQiTPNIE4cTpBWgNPp-1" vertex="1">
                    <mxGeometry x="47" y="140" width="60" height="30" as="geometry"/>
                </mxCell>
                <mxCell id="su2eq--4v8VFRO4t7ZzG-28" value="登錄()" style="text;strokeColor=none;align=center;fillColor=none;html=1;verticalAlign=middle;whiteSpace=wrap;rounded=0;fontSize=15;" parent="zpLQiTPNIE4cTpBWgNPp-1" vertex="1">
                    <mxGeometry x="47" y="170" width="60" height="30" as="geometry"/>
                </mxCell>
                <mxCell id="su2eq--4v8VFRO4t7ZzG-29" value="創建訂餐活動()" style="text;strokeColor=none;align=center;fillColor=none;html=1;verticalAlign=middle;whiteSpace=wrap;rounded=0;fontSize=15;" parent="zpLQiTPNIE4cTpBWgNPp-1" vertex="1">
                    <mxGeometry x="51.5" y="200" width="110" height="30" as="geometry"/>
                </mxCell>
                <mxCell id="su2eq--4v8VFRO4t7ZzG-30" value="選擇餐點並提交訂單()" style="text;strokeColor=none;align=center;fillColor=none;html=1;verticalAlign=middle;whiteSpace=wrap;rounded=0;fontSize=15;" parent="zpLQiTPNIE4cTpBWgNPp-1" vertex="1">
                    <mxGeometry x="54" y="228" width="150" height="30" as="geometry"/>
                </mxCell>
                <mxCell id="su2eq--4v8VFRO4t7ZzG-31" value="查看訂單狀態()" style="text;strokeColor=none;align=center;fillColor=none;html=1;verticalAlign=middle;whiteSpace=wrap;rounded=0;fontSize=15;" parent="zpLQiTPNIE4cTpBWgNPp-1" vertex="1">
                    <mxGeometry x="52" y="259" width="110" height="30" as="geometry"/>
                </mxCell>
                <mxCell id="su2eq--4v8VFRO4t7ZzG-4" value="" style="endArrow=none;html=1;fontSize=18;" parent="y-VTRFzA6LRBIdyBt608-26" edge="1">
                    <mxGeometry width="50" height="50" relative="1" as="geometry">
                        <mxPoint x="20" y="66" as="sourcePoint"/>
                        <mxPoint x="40" y="66" as="targetPoint"/>
                    </mxGeometry>
                </mxCell>
                <mxCell id="su2eq--4v8VFRO4t7ZzG-5" value="" style="endArrow=none;html=1;fontSize=18;" parent="y-VTRFzA6LRBIdyBt608-26" edge="1">
                    <mxGeometry width="50" height="50" relative="1" as="geometry">
                        <mxPoint x="20" y="88" as="sourcePoint"/>
                        <mxPoint x="40" y="88" as="targetPoint"/>
                    </mxGeometry>
                </mxCell>
                <mxCell id="su2eq--4v8VFRO4t7ZzG-6" value="" style="endArrow=none;html=1;fontSize=18;" parent="y-VTRFzA6LRBIdyBt608-26" edge="1">
                    <mxGeometry width="50" height="50" relative="1" as="geometry">
                        <mxPoint x="20" y="113" as="sourcePoint"/>
                        <mxPoint x="40" y="113" as="targetPoint"/>
                    </mxGeometry>
                </mxCell>
                <mxCell id="su2eq--4v8VFRO4t7ZzG-11" value="" style="endArrow=none;html=1;fontSize=15;exitX=0;exitY=0.5;exitDx=0;exitDy=0;" parent="y-VTRFzA6LRBIdyBt608-26" edge="1">
                    <mxGeometry width="50" height="50" relative="1" as="geometry">
                        <mxPoint y="131" as="sourcePoint"/>
                        <mxPoint x="210" y="131" as="targetPoint"/>
                    </mxGeometry>
                </mxCell>
                <mxCell id="su2eq--4v8VFRO4t7ZzG-14" value="" style="group" parent="y-VTRFzA6LRBIdyBt608-26" vertex="1" connectable="0">
                    <mxGeometry x="20" y="144" width="20" height="20" as="geometry"/>
                </mxCell>
                <mxCell id="su2eq--4v8VFRO4t7ZzG-12" value="" style="endArrow=none;html=1;fontSize=18;" parent="su2eq--4v8VFRO4t7ZzG-14" edge="1">
                    <mxGeometry width="50" height="50" relative="1" as="geometry">
                        <mxPoint y="9.565217391304348" as="sourcePoint"/>
                        <mxPoint x="20" y="9.565217391304348" as="targetPoint"/>
                    </mxGeometry>
                </mxCell>
                <mxCell id="su2eq--4v8VFRO4t7ZzG-13" value="" style="endArrow=none;html=1;fontSize=18;" parent="su2eq--4v8VFRO4t7ZzG-14" edge="1">
                    <mxGeometry width="50" height="50" relative="1" as="geometry">
                        <mxPoint x="10" as="sourcePoint"/>
                        <mxPoint x="10" y="20" as="targetPoint"/>
                    </mxGeometry>
                </mxCell>
                <mxCell id="su2eq--4v8VFRO4t7ZzG-15" value="" style="group" parent="y-VTRFzA6LRBIdyBt608-26" vertex="1" connectable="0">
                    <mxGeometry x="20" y="175" width="20" height="20" as="geometry"/>
                </mxCell>
                <mxCell id="su2eq--4v8VFRO4t7ZzG-16" value="" style="endArrow=none;html=1;fontSize=18;" parent="su2eq--4v8VFRO4t7ZzG-15" edge="1">
                    <mxGeometry width="50" height="50" relative="1" as="geometry">
                        <mxPoint y="9.565217391304348" as="sourcePoint"/>
                        <mxPoint x="20" y="9.565217391304348" as="targetPoint"/>
                    </mxGeometry>
                </mxCell>
                <mxCell id="su2eq--4v8VFRO4t7ZzG-17" value="" style="endArrow=none;html=1;fontSize=18;" parent="su2eq--4v8VFRO4t7ZzG-15" edge="1">
                    <mxGeometry width="50" height="50" relative="1" as="geometry">
                        <mxPoint x="10" as="sourcePoint"/>
                        <mxPoint x="10" y="20" as="targetPoint"/>
                    </mxGeometry>
                </mxCell>
                <mxCell id="su2eq--4v8VFRO4t7ZzG-18" value="" style="group" parent="y-VTRFzA6LRBIdyBt608-26" vertex="1" connectable="0">
                    <mxGeometry x="20" y="231" width="20" height="20" as="geometry"/>
                </mxCell>
                <mxCell id="su2eq--4v8VFRO4t7ZzG-19" value="" style="endArrow=none;html=1;fontSize=18;" parent="su2eq--4v8VFRO4t7ZzG-18" edge="1">
                    <mxGeometry width="50" height="50" relative="1" as="geometry">
                        <mxPoint y="9.565217391304348" as="sourcePoint"/>
                        <mxPoint x="20" y="9.565217391304348" as="targetPoint"/>
                    </mxGeometry>
                </mxCell>
                <mxCell id="su2eq--4v8VFRO4t7ZzG-20" value="" style="endArrow=none;html=1;fontSize=18;" parent="su2eq--4v8VFRO4t7ZzG-18" edge="1">
                    <mxGeometry width="50" height="50" relative="1" as="geometry">
                        <mxPoint x="10" as="sourcePoint"/>
                        <mxPoint x="10" y="20" as="targetPoint"/>
                    </mxGeometry>
                </mxCell>
                <mxCell id="su2eq--4v8VFRO4t7ZzG-24" value="" style="group" parent="y-VTRFzA6LRBIdyBt608-26" vertex="1" connectable="0">
                    <mxGeometry x="20" y="262" width="20" height="20" as="geometry"/>
                </mxCell>
                <mxCell id="su2eq--4v8VFRO4t7ZzG-25" value="" style="endArrow=none;html=1;fontSize=18;" parent="su2eq--4v8VFRO4t7ZzG-24" edge="1">
                    <mxGeometry width="50" height="50" relative="1" as="geometry">
                        <mxPoint y="9.565217391304348" as="sourcePoint"/>
                        <mxPoint x="20" y="9.565217391304348" as="targetPoint"/>
                    </mxGeometry>
                </mxCell>
                <mxCell id="su2eq--4v8VFRO4t7ZzG-26" value="" style="endArrow=none;html=1;fontSize=18;" parent="su2eq--4v8VFRO4t7ZzG-24" edge="1">
                    <mxGeometry width="50" height="50" relative="1" as="geometry">
                        <mxPoint x="10" as="sourcePoint"/>
                        <mxPoint x="10" y="20" as="targetPoint"/>
                    </mxGeometry>
                </mxCell>
                <mxCell id="y-VTRFzA6LRBIdyBt608-27" value="" style="endArrow=none;html=1;fontSize=15;exitX=1;exitY=0.5;exitDx=0;exitDy=0;entryX=0;entryY=0.5;entryDx=0;entryDy=0;" parent="1" source="zpLQiTPNIE4cTpBWgNPp-1" target="su2eq--4v8VFRO4t7ZzG-35" edge="1">
                    <mxGeometry width="50" height="50" relative="1" as="geometry">
                        <mxPoint x="259" y="192.9999999999999" as="sourcePoint"/>
                        <mxPoint x="350" y="193" as="targetPoint"/>
                    </mxGeometry>
                </mxCell>
                <mxCell id="y-VTRFzA6LRBIdyBt608-28" value="" style="endArrow=none;html=1;fontSize=15;exitX=1;exitY=0.75;exitDx=0;exitDy=0;entryX=0;entryY=0.75;entryDx=0;entryDy=0;" parent="1" source="su2eq--4v8VFRO4t7ZzG-35" target="y-VTRFzA6LRBIdyBt608-2" edge="1">
                    <mxGeometry width="50" height="50" relative="1" as="geometry">
                        <mxPoint x="360" y="360" as="sourcePoint"/>
                        <mxPoint x="410" y="310" as="targetPoint"/>
                    </mxGeometry>
                </mxCell>
                <mxCell id="y-VTRFzA6LRBIdyBt608-29" value="" style="endArrow=none;html=1;fontSize=15;entryX=0.5;entryY=1;entryDx=0;entryDy=0;" parent="1" source="su2eq--4v8VFRO4t7ZzG-67" target="su2eq--4v8VFRO4t7ZzG-35" edge="1">
                    <mxGeometry width="50" height="50" relative="1" as="geometry">
                        <mxPoint x="360" y="360" as="sourcePoint"/>
                        <mxPoint x="410" y="310" as="targetPoint"/>
                    </mxGeometry>
                </mxCell>
                <mxCell id="y-VTRFzA6LRBIdyBt608-32" value="" style="endArrow=none;html=1;fontSize=15;exitX=1;exitY=0.5;exitDx=0;exitDy=0;entryX=0;entryY=0.5;entryDx=0;entryDy=0;" parent="1" source="su2eq--4v8VFRO4t7ZzG-67" target="su2eq--4v8VFRO4t7ZzG-96" edge="1">
                    <mxGeometry width="50" height="50" relative="1" as="geometry">
                        <mxPoint x="360" y="360" as="sourcePoint"/>
                        <mxPoint x="410" y="310" as="targetPoint"/>
                    </mxGeometry>
                </mxCell>
                <mxCell id="y-VTRFzA6LRBIdyBt608-33" value="&lt;font style=&quot;font-size: 25px;&quot;&gt;1&lt;/font&gt;" style="text;strokeColor=none;align=center;fillColor=none;html=1;verticalAlign=middle;whiteSpace=wrap;rounded=0;fontSize=15;" parent="1" vertex="1">
                    <mxGeometry x="225" y="150" width="60" height="30" as="geometry"/>
                </mxCell>
                <mxCell id="y-VTRFzA6LRBIdyBt608-34" value="&lt;span style=&quot;font-size: 25px;&quot;&gt;*&lt;/span&gt;" style="text;strokeColor=none;align=center;fillColor=none;html=1;verticalAlign=middle;whiteSpace=wrap;rounded=0;fontSize=15;" parent="1" vertex="1">
                    <mxGeometry x="300" y="150" width="60" height="30" as="geometry"/>
                </mxCell>
                <mxCell id="y-VTRFzA6LRBIdyBt608-36" value="&lt;font style=&quot;font-size: 25px;&quot;&gt;1&lt;/font&gt;" style="text;strokeColor=none;align=center;fillColor=none;html=1;verticalAlign=middle;whiteSpace=wrap;rounded=0;fontSize=15;" parent="1" vertex="1">
                    <mxGeometry x="572" y="209" width="60" height="30" as="geometry"/>
                </mxCell>
                <mxCell id="y-VTRFzA6LRBIdyBt608-37" value="&lt;span style=&quot;font-size: 25px;&quot;&gt;*&lt;/span&gt;" style="text;strokeColor=none;align=center;fillColor=none;html=1;verticalAlign=middle;whiteSpace=wrap;rounded=0;fontSize=15;" parent="1" vertex="1">
                    <mxGeometry x="505" y="212" width="60" height="30" as="geometry"/>
                </mxCell>
                <mxCell id="y-VTRFzA6LRBIdyBt608-38" value="&lt;font style=&quot;font-size: 25px;&quot;&gt;1&lt;/font&gt;" style="text;strokeColor=none;align=center;fillColor=none;html=1;verticalAlign=middle;whiteSpace=wrap;rounded=0;fontSize=15;" parent="1" vertex="1">
                    <mxGeometry x="420" y="320" width="60" height="30" as="geometry"/>
                </mxCell>
                <mxCell id="y-VTRFzA6LRBIdyBt608-39" value="&lt;span style=&quot;font-size: 25px;&quot;&gt;*&lt;/span&gt;" style="text;strokeColor=none;align=center;fillColor=none;html=1;verticalAlign=middle;whiteSpace=wrap;rounded=0;fontSize=15;" parent="1" vertex="1">
                    <mxGeometry x="420" y="390" width="60" height="30" as="geometry"/>
                </mxCell>
                <mxCell id="y-VTRFzA6LRBIdyBt608-44" value="&lt;span style=&quot;font-size: 25px;&quot;&gt;*&lt;/span&gt;" style="text;strokeColor=none;align=center;fillColor=none;html=1;verticalAlign=middle;whiteSpace=wrap;rounded=0;fontSize=15;" parent="1" vertex="1">
                    <mxGeometry x="519" y="489" width="60" height="30" as="geometry"/>
                </mxCell>
                <mxCell id="y-VTRFzA6LRBIdyBt608-45" value="&lt;span style=&quot;font-size: 25px;&quot;&gt;*&lt;/span&gt;" style="text;strokeColor=none;align=center;fillColor=none;html=1;verticalAlign=middle;whiteSpace=wrap;rounded=0;fontSize=15;" parent="1" vertex="1">
                    <mxGeometry x="572" y="489" width="60" height="30" as="geometry"/>
                </mxCell>
                <mxCell id="su2eq--4v8VFRO4t7ZzG-35" value="&lt;div style=&quot;color: rgb(204, 204, 204); background-color: rgb(31, 31, 31); font-family: Consolas, &amp;quot;Courier New&amp;quot;, monospace; font-weight: normal; font-size: 14px; line-height: 19px;&quot;&gt;訂餐負責人（組織者）&lt;/div&gt;" style="swimlane;whiteSpace=wrap;html=1;startSize=23;" parent="1" vertex="1">
                    <mxGeometry x="350" y="50" width="170" height="265" as="geometry"/>
                </mxCell>
                <mxCell id="su2eq--4v8VFRO4t7ZzG-38" value="姓名" style="text;strokeColor=none;align=center;fillColor=none;html=1;verticalAlign=middle;whiteSpace=wrap;rounded=0;fontSize=15;" parent="su2eq--4v8VFRO4t7ZzG-35" vertex="1">
                    <mxGeometry x="43" y="34" width="60" height="30" as="geometry"/>
                </mxCell>
                <mxCell id="su2eq--4v8VFRO4t7ZzG-39" value="郵件" style="text;strokeColor=none;align=center;fillColor=none;html=1;verticalAlign=middle;whiteSpace=wrap;rounded=0;fontSize=15;" parent="su2eq--4v8VFRO4t7ZzG-35" vertex="1">
                    <mxGeometry x="43" y="66" width="60" height="30" as="geometry"/>
                </mxCell>
                <mxCell id="su2eq--4v8VFRO4t7ZzG-40" value="手機號碼" style="text;strokeColor=none;align=center;fillColor=none;html=1;verticalAlign=middle;whiteSpace=wrap;rounded=0;fontSize=15;" parent="su2eq--4v8VFRO4t7ZzG-35" vertex="1">
                    <mxGeometry x="52" y="95" width="70" height="30" as="geometry"/>
                </mxCell>
                <mxCell id="su2eq--4v8VFRO4t7ZzG-41" value="" style="group" parent="su2eq--4v8VFRO4t7ZzG-35" vertex="1" connectable="0">
                    <mxGeometry x="20" y="231" width="20" height="20" as="geometry"/>
                </mxCell>
                <mxCell id="su2eq--4v8VFRO4t7ZzG-42" value="" style="endArrow=none;html=1;fontSize=18;" parent="su2eq--4v8VFRO4t7ZzG-41" edge="1">
                    <mxGeometry width="50" height="50" relative="1" as="geometry">
                        <mxPoint y="9.565217391304348" as="sourcePoint"/>
                        <mxPoint x="20" y="9.565217391304348" as="targetPoint"/>
                    </mxGeometry>
                </mxCell>
                <mxCell id="su2eq--4v8VFRO4t7ZzG-43" value="" style="endArrow=none;html=1;fontSize=18;" parent="su2eq--4v8VFRO4t7ZzG-41" edge="1">
                    <mxGeometry width="50" height="50" relative="1" as="geometry">
                        <mxPoint x="10" as="sourcePoint"/>
                        <mxPoint x="10" y="20" as="targetPoint"/>
                    </mxGeometry>
                </mxCell>
                <mxCell id="su2eq--4v8VFRO4t7ZzG-44" value="創建訂餐活動()" style="text;strokeColor=none;align=center;fillColor=none;html=1;verticalAlign=middle;whiteSpace=wrap;rounded=0;fontSize=15;" parent="su2eq--4v8VFRO4t7ZzG-35" vertex="1">
                    <mxGeometry x="53.5" y="137" width="103" height="30" as="geometry"/>
                </mxCell>
                <mxCell id="su2eq--4v8VFRO4t7ZzG-45" value="管理訂單()" style="text;strokeColor=none;align=center;fillColor=none;html=1;verticalAlign=middle;whiteSpace=wrap;rounded=0;fontSize=15;" parent="su2eq--4v8VFRO4t7ZzG-35" vertex="1">
                    <mxGeometry x="54" y="168" width="73" height="30" as="geometry"/>
                </mxCell>
                <mxCell id="su2eq--4v8VFRO4t7ZzG-46" value="發送通知()" style="text;strokeColor=none;align=center;fillColor=none;html=1;verticalAlign=middle;whiteSpace=wrap;rounded=0;fontSize=15;" parent="su2eq--4v8VFRO4t7ZzG-35" vertex="1">
                    <mxGeometry x="48.25" y="197" width="84.5" height="30" as="geometry"/>
                </mxCell>
                <mxCell id="su2eq--4v8VFRO4t7ZzG-47" value="數據分析()" style="text;strokeColor=none;align=center;fillColor=none;html=1;verticalAlign=middle;whiteSpace=wrap;rounded=0;fontSize=15;" parent="su2eq--4v8VFRO4t7ZzG-35" vertex="1">
                    <mxGeometry x="42" y="227" width="97" height="30" as="geometry"/>
                </mxCell>
                <mxCell id="su2eq--4v8VFRO4t7ZzG-49" value="" style="endArrow=none;html=1;fontSize=18;" parent="1" edge="1">
                    <mxGeometry width="50" height="50" relative="1" as="geometry">
                        <mxPoint x="370" y="97" as="sourcePoint"/>
                        <mxPoint x="390" y="97" as="targetPoint"/>
                    </mxGeometry>
                </mxCell>
                <mxCell id="su2eq--4v8VFRO4t7ZzG-50" value="" style="endArrow=none;html=1;fontSize=18;" parent="1" edge="1">
                    <mxGeometry width="50" height="50" relative="1" as="geometry">
                        <mxPoint x="370" y="129" as="sourcePoint"/>
                        <mxPoint x="390" y="129" as="targetPoint"/>
                    </mxGeometry>
                </mxCell>
                <mxCell id="su2eq--4v8VFRO4t7ZzG-51" value="" style="endArrow=none;html=1;fontSize=18;" parent="1" edge="1">
                    <mxGeometry width="50" height="50" relative="1" as="geometry">
                        <mxPoint x="370" y="158" as="sourcePoint"/>
                        <mxPoint x="390" y="158" as="targetPoint"/>
                    </mxGeometry>
                </mxCell>
                <mxCell id="su2eq--4v8VFRO4t7ZzG-52" value="" style="endArrow=none;html=1;fontSize=15;exitX=0;exitY=0.5;exitDx=0;exitDy=0;" parent="1" edge="1">
                    <mxGeometry width="50" height="50" relative="1" as="geometry">
                        <mxPoint x="350" y="179" as="sourcePoint"/>
                        <mxPoint x="520" y="179" as="targetPoint"/>
                    </mxGeometry>
                </mxCell>
                <mxCell id="su2eq--4v8VFRO4t7ZzG-53" value="" style="group" parent="1" vertex="1" connectable="0">
                    <mxGeometry x="370" y="189" width="20" height="20" as="geometry"/>
                </mxCell>
                <mxCell id="su2eq--4v8VFRO4t7ZzG-54" value="" style="endArrow=none;html=1;fontSize=18;" parent="su2eq--4v8VFRO4t7ZzG-53" edge="1">
                    <mxGeometry width="50" height="50" relative="1" as="geometry">
                        <mxPoint y="9.565217391304348" as="sourcePoint"/>
                        <mxPoint x="20" y="9.565217391304348" as="targetPoint"/>
                    </mxGeometry>
                </mxCell>
                <mxCell id="su2eq--4v8VFRO4t7ZzG-55" value="" style="endArrow=none;html=1;fontSize=18;" parent="su2eq--4v8VFRO4t7ZzG-53" edge="1">
                    <mxGeometry width="50" height="50" relative="1" as="geometry">
                        <mxPoint x="10" as="sourcePoint"/>
                        <mxPoint x="10" y="20" as="targetPoint"/>
                    </mxGeometry>
                </mxCell>
                <mxCell id="su2eq--4v8VFRO4t7ZzG-56" value="" style="group" parent="1" vertex="1" connectable="0">
                    <mxGeometry x="370" y="222" width="20" height="20" as="geometry"/>
                </mxCell>
                <mxCell id="su2eq--4v8VFRO4t7ZzG-57" value="" style="endArrow=none;html=1;fontSize=18;" parent="su2eq--4v8VFRO4t7ZzG-56" edge="1">
                    <mxGeometry width="50" height="50" relative="1" as="geometry">
                        <mxPoint y="9.565217391304348" as="sourcePoint"/>
                        <mxPoint x="20" y="9.565217391304348" as="targetPoint"/>
                    </mxGeometry>
                </mxCell>
                <mxCell id="su2eq--4v8VFRO4t7ZzG-58" value="" style="endArrow=none;html=1;fontSize=18;" parent="su2eq--4v8VFRO4t7ZzG-56" edge="1">
                    <mxGeometry width="50" height="50" relative="1" as="geometry">
                        <mxPoint x="10" as="sourcePoint"/>
                        <mxPoint x="10" y="20" as="targetPoint"/>
                    </mxGeometry>
                </mxCell>
                <mxCell id="su2eq--4v8VFRO4t7ZzG-59" value="" style="group" parent="1" vertex="1" connectable="0">
                    <mxGeometry x="370" y="251" width="20" height="20" as="geometry"/>
                </mxCell>
                <mxCell id="su2eq--4v8VFRO4t7ZzG-60" value="" style="endArrow=none;html=1;fontSize=18;" parent="su2eq--4v8VFRO4t7ZzG-59" edge="1">
                    <mxGeometry width="50" height="50" relative="1" as="geometry">
                        <mxPoint y="9.565217391304348" as="sourcePoint"/>
                        <mxPoint x="20" y="9.565217391304348" as="targetPoint"/>
                    </mxGeometry>
                </mxCell>
                <mxCell id="su2eq--4v8VFRO4t7ZzG-61" value="" style="endArrow=none;html=1;fontSize=18;" parent="su2eq--4v8VFRO4t7ZzG-59" edge="1">
                    <mxGeometry width="50" height="50" relative="1" as="geometry">
                        <mxPoint x="10" as="sourcePoint"/>
                        <mxPoint x="10" y="20" as="targetPoint"/>
                    </mxGeometry>
                </mxCell>
                <mxCell id="e5ahi04dJYp5AnhJW7Qz-13" value="" style="group" parent="1" vertex="1" connectable="0">
                    <mxGeometry x="460" y="360" width="80" height="20" as="geometry"/>
                </mxCell>
                <mxCell id="y-VTRFzA6LRBIdyBt608-43" value="&lt;span style=&quot;font-size: 20px;&quot;&gt;下訂單&lt;/span&gt;" style="text;strokeColor=none;align=center;fillColor=none;html=1;verticalAlign=middle;whiteSpace=wrap;rounded=0;fontSize=25;" parent="e5ahi04dJYp5AnhJW7Qz-13" vertex="1">
                    <mxGeometry x="15.280898876404494" width="64.71910112359551" height="20" as="geometry"/>
                </mxCell>
                <mxCell id="e5ahi04dJYp5AnhJW7Qz-10" value="" style="triangle;whiteSpace=wrap;html=1;" parent="e5ahi04dJYp5AnhJW7Qz-13" vertex="1">
                    <mxGeometry width="17.97752808988764" height="20" as="geometry"/>
                </mxCell>
                <mxCell id="e5ahi04dJYp5AnhJW7Qz-16" value="" style="group" parent="1" vertex="1" connectable="0">
                    <mxGeometry x="544" y="460" width="68" height="21" as="geometry"/>
                </mxCell>
                <mxCell id="y-VTRFzA6LRBIdyBt608-40" value="&lt;font style=&quot;font-size: 20px;&quot;&gt;合作&lt;/font&gt;" style="text;strokeColor=none;align=center;fillColor=none;html=1;verticalAlign=middle;whiteSpace=wrap;rounded=0;fontSize=25;" parent="e5ahi04dJYp5AnhJW7Qz-16" vertex="1">
                    <mxGeometry x="13.6" width="54.4" height="20.32258064516129" as="geometry"/>
                </mxCell>
                <mxCell id="e5ahi04dJYp5AnhJW7Qz-14" value="" style="triangle;whiteSpace=wrap;html=1;" parent="e5ahi04dJYp5AnhJW7Qz-16" vertex="1">
                    <mxGeometry y="0.6774193548387096" width="18.133333333333333" height="20.32258064516129" as="geometry"/>
                </mxCell>
                <mxCell id="e5ahi04dJYp5AnhJW7Qz-18" value="" style="group" parent="1" vertex="1" connectable="0">
                    <mxGeometry x="542" y="170" width="67" height="20" as="geometry"/>
                </mxCell>
                <mxCell id="y-VTRFzA6LRBIdyBt608-42" value="&lt;font style=&quot;font-size: 20px;&quot;&gt;管理&lt;/font&gt;" style="text;strokeColor=none;align=center;fillColor=none;html=1;verticalAlign=middle;whiteSpace=wrap;rounded=0;fontSize=25;" parent="e5ahi04dJYp5AnhJW7Qz-18" vertex="1">
                    <mxGeometry x="16.473684210526358" width="50.526315789473685" height="20" as="geometry"/>
                </mxCell>
                <mxCell id="e5ahi04dJYp5AnhJW7Qz-6" value="" style="triangle;whiteSpace=wrap;html=1;" parent="e5ahi04dJYp5AnhJW7Qz-18" vertex="1">
                    <mxGeometry width="16.842105263157894" height="20" as="geometry"/>
                </mxCell>
                <mxCell id="e5ahi04dJYp5AnhJW7Qz-19" value="" style="group" parent="1" vertex="1" connectable="0">
                    <mxGeometry x="260" y="109" width="70" height="30" as="geometry"/>
                </mxCell>
                <mxCell id="y-VTRFzA6LRBIdyBt608-35" value="&lt;font style=&quot;font-size: 20px;&quot;&gt;參與&lt;/font&gt;" style="text;strokeColor=none;align=center;fillColor=none;html=1;verticalAlign=middle;whiteSpace=wrap;rounded=0;fontSize=25;" parent="e5ahi04dJYp5AnhJW7Qz-19" vertex="1">
                    <mxGeometry x="18" width="52" height="30" as="geometry"/>
                </mxCell>
                <mxCell id="e5ahi04dJYp5AnhJW7Qz-2" value="" style="triangle;whiteSpace=wrap;html=1;" parent="e5ahi04dJYp5AnhJW7Qz-19" vertex="1">
                    <mxGeometry y="3.5" width="20" height="25" as="geometry"/>
                </mxCell>
            </root>
        </mxGraphModel>
    </diagram>
</mxfile>